HIERARCHY
ROOT Hips
{
	OFFSET 0.000000 0.000000 0.000000 
	CHANNELS 6 Xposition Yposition Zposition Xrotation Yrotation Zrotation
	JOINT Spine
	{
		OFFSET 0.000000 1.722820 2.584230 
		CHANNELS 3 Xrotation Yrotation Zrotation
		JOINT Spine1
		{
			OFFSET 0.000000 0.598330 3.393290 
			CHANNELS 3 Xrotation Yrotation Zrotation
			JOINT Spine2
			{
				OFFSET 0.000000 0.300310 3.432520 
				CHANNELS 3 Xrotation Yrotation Zrotation
				JOINT Spine3
				{
					OFFSET 0.000000 0.000000 3.445640 
					CHANNELS 3 Xrotation Yrotation Zrotation
					JOINT Neck
					{
						OFFSET 0.000000 -1.292100 9.044790 
						CHANNELS 3 Xrotation Yrotation Zrotation
						JOINT Head
						{
							OFFSET 0.000000 -0.822700 4.665770 
							CHANNELS 3 Xrotation Yrotation Zrotation
							End Site
							{
								OFFSET 0.000000 0.000010 5.577620 
							}
						}
					}
					JOINT RightShoulder
					{
						OFFSET -1.175120 -1.958530 6.345670 
						CHANNELS 3 Xrotation Yrotation Zrotation
						JOINT RightArm
						{
							OFFSET -5.836450 0.000000 0.000000 
							CHANNELS 3 Xrotation Yrotation Zrotation
							JOINT RightForeArm
							{
								OFFSET -10.886420 0.000000 0.000000 
								CHANNELS 3 Xrotation Yrotation Zrotation
								JOINT RightHand
								{
									OFFSET -10.194950 0.000000 0.000000 
									CHANNELS 3 Xrotation Yrotation Zrotation
									JOINT RightHandEnd
									{
										OFFSET -2.735920 0.000000 0.000000 
										CHANNELS 3 Xrotation Yrotation Zrotation
										End Site
										{
											OFFSET -2.735920 0.000000 0.000000 
										}
									}
									JOINT RightHandThumb1
									{
										OFFSET -1.094370 -1.823950 -0.729580 
										CHANNELS 3 Yrotation Xrotation Zrotation
										End Site
										{
											OFFSET -2.642700 -0.708110 0.000000 
										}
									}
								}
							}
						}
					}
					JOINT LeftShoulder
					{
						OFFSET 1.175120 -1.958530 6.345670 
						CHANNELS 3 Xrotation Yrotation Zrotation
						JOINT LeftArm
						{
							OFFSET 5.836450 0.000000 0.000000 
							CHANNELS 3 Xrotation Yrotation Zrotation
							JOINT LeftForeArm
							{
								OFFSET 10.886420 0.000000 0.000000 
								CHANNELS 3 Xrotation Yrotation Zrotation
								JOINT LeftHand
								{
									OFFSET 10.194950 0.000000 0.000000 
									CHANNELS 3 Xrotation Yrotation Zrotation
									JOINT LeftHandEnd
									{
										OFFSET 2.735920 0.000000 0.000000 
										CHANNELS 3 Xrotation Yrotation Zrotation
										End Site
										{
											OFFSET 2.735920 0.000000 0.000000 
										}
									}
									JOINT LeftHandThumb1
									{
										OFFSET 1.094370 -1.823950 -0.729580 
										CHANNELS 3 Yrotation Xrotation Zrotation
										End Site
										{
											OFFSET 2.642700 -0.708110 0.000000 
										}
									}
								}
							}
						}
					}
				}
			}
		}
	}
	JOINT RightUpLeg
	{
		OFFSET -3.486200 0.000000 -1.018440 
		CHANNELS 3 Xrotation Yrotation Zrotation
		JOINT RightLeg
		{
			OFFSET 0.000010 0.000000 -16.688210 
			CHANNELS 3 Xrotation Yrotation Zrotation
			JOINT RightFoot
			{
				OFFSET 0.000010 0.000000 -16.775360 
				CHANNELS 3 Xrotation Yrotation Zrotation
				JOINT RightToeBase
				{
					OFFSET 0.000000 -4.945160 -1.799890 
					CHANNELS 3 Xrotation Yrotation Zrotation
					End Site
					{
						OFFSET 0.000000 -2.820300 -0.000000 
					}
				}
			}
		}
	}
	JOINT LeftUpLeg
	{
		OFFSET 3.486200 0.000000 -1.018440 
		CHANNELS 3 Xrotation Yrotation Zrotation
		JOINT LeftLeg
		{
			OFFSET 0.000010 0.000000 -16.688210 
			CHANNELS 3 Xrotation Yrotation Zrotation
			JOINT LeftFoot
			{
				OFFSET 0.000010 0.000000 -16.775360 
				CHANNELS 3 Xrotation Yrotation Zrotation
				JOINT LeftToeBase
				{
					OFFSET 0.000000 -4.945160 -1.799890 
					CHANNELS 3 Xrotation Yrotation Zrotation
					End Site
					{
						OFFSET 0.000000 -2.820300 -0.000000 
					}
				}
			}
		}
	}
}
MOTION
Frames: 8
Frame Time: 0.008333
43.331100 36.252998 -7.039300 -84.308601 4.900100 8.038800 3.329300 -4.834500 -0.169700 2.686000 -1.186000 -0.293200 4.904000 -2.592500 -1.481500 -1.156100 0.008800 -0.194500 -9.770100 -1.674600 -0.751300 -11.485300 5.637600 0.690500 6.233500 -1.630500 2.045400 5.764900 -52.178001 9.829500 -0.000100 0.000100 107.846497 19.587799 -14.919500 -13.883100 0.000000 0.000000 -0.000000 -0.000000 0.000000 0.000000 1.199800 5.244800 -3.696100 21.954599 63.649399 -19.330000 -0.000100 -0.000100 -109.070900 4.537900 5.812500 10.073400 0.000000 -0.000000 -0.000000 0.000000 0.000000 -0.000000 -14.607800 5.441300 -16.886700 19.553301 0.000000 0.000000 -8.035600 -7.836300 -5.028000 0.726200 0.000000 0.000000 -18.388300 -20.186399 3.933500 33.173199 0.000000 0.000000 -12.629100 11.120100 -4.245600 -4.432100 0.000000 -0.000000 
43.257702 36.283798 -7.051400 -84.150200 4.723300 8.184600 3.357100 -4.784300 -0.173500 2.701300 -1.209900 -0.291800 4.917500 -2.475200 -1.424400 -1.158500 0.047300 -0.198400 -9.679500 -1.509500 -0.724000 -11.465600 5.562700 0.468200 6.300600 -1.567300 2.045300 5.794600 -52.055000 9.592100 -0.000100 0.000100 107.584396 19.517700 -14.633300 -13.982800 -0.000000 0.000000 -0.000000 -0.000000 -0.000000 0.000000 1.300000 5.284000 -3.649100 21.739901 63.455200 -19.474899 -0.000100 -0.000100 -109.220901 5.134000 6.936900 9.685800 0.000000 0.000000 -0.000000 0.000000 0.000000 -0.000000 -14.651100 5.508200 -16.934200 19.330299 0.000000 0.000000 -7.973200 -7.694300 -5.088800 0.774000 0.000000 0.000000 -19.056000 -19.440399 3.808600 33.556099 0.000000 0.000000 -12.688700 11.581400 -3.905800 -4.268300 0.000000 -0.000000 
43.189800 36.312000 -7.061800 -83.998596 4.574300 8.316900 3.382000 -4.747300 -0.180800 2.705800 -1.234500 -0.289900 4.939900 -2.360800 -1.353900 -1.161400 0.079800 -0.196700 -9.654600 -1.356100 -0.703100 -11.419700 5.489300 0.281000 6.324900 -1.546000 2.039200 5.842500 -51.863098 9.337300 -0.000100 0.000100 107.325798 19.368500 -14.330100 -14.023000 -0.000000 0.000000 -0.000000 0.000000 -0.000000 0.000000 1.431800 5.336900 -3.609900 21.529400 63.276299 -19.621700 -0.000100 -0.000100 -109.357498 5.976900 7.850400 9.352700 0.000000 0.000000 -0.000000 0.000000 0.000000 -0.000000 -14.689900 5.556100 -16.989300 19.111000 0.000000 0.000000 -7.906700 -7.561300 -5.132500 0.814300 0.000000 0.000000 -19.674801 -18.715099 3.723700 33.852001 0.000000 0.000000 -12.815600 12.032100 -3.412000 -4.144000 0.000000 -0.000000 
43.126400 36.337200 -7.070500 -83.855003 4.456500 8.434000 3.404800 -4.725400 -0.189200 2.703800 -1.257500 -0.287400 4.968200 -2.246700 -1.272400 -1.163300 0.104700 -0.192400 -9.677900 -1.238300 -0.702900 -11.342900 5.445700 0.107900 6.303400 -1.567300 2.032400 5.922500 -51.601898 9.069700 -0.000100 0.000100 107.075302 19.234200 -13.955900 -14.064800 0.000000 0.000000 0.000000 -0.000000 0.000000 0.000000 1.487600 5.420100 -3.597300 21.251200 63.124401 -19.574301 -0.000100 -0.000100 -109.549698 6.913100 8.795000 9.239100 -0.000000 0.000000 0.000000 0.000000 -0.000000 0.000000 -14.725400 5.578300 -17.047001 18.897301 0.000000 0.000000 -7.838400 -7.435300 -5.164700 0.846600 0.000000 0.000000 -20.236799 -18.022499 3.667900 34.056900 0.000000 0.000000 -13.006200 12.468400 -2.832700 -4.121000 0.000000 -0.000000 
43.066299 36.359200 -7.078600 -83.718002 4.375000 8.540000 3.430100 -4.718500 -0.195000 2.699400 -1.277000 -0.284300 4.992700 -2.138000 -1.188700 -1.163600 0.121000 -0.186500 -9.725100 -1.171800 -0.735300 -11.237500 5.450100 -0.058500 6.290400 -1.606700 2.019500 5.971100 -51.331902 8.799200 -0.000100 0.000100 106.821800 19.140800 -13.544700 -14.103000 0.000000 0.000000 0.000000 0.000000 0.000000 0.000000 1.417100 5.533200 -3.614600 20.926901 63.006802 -19.297600 -0.000100 -0.000100 -109.774597 7.832400 9.782300 9.228200 -0.000000 0.000000 -0.000000 0.000000 0.000000 0.000000 -14.763000 5.568800 -17.107000 18.692301 0.000000 0.000000 -7.769600 -7.314000 -5.192100 0.870600 0.000000 0.000000 -20.746000 -17.373600 3.624200 34.171101 0.000000 0.000000 -13.249800 12.875500 -2.246900 -4.150500 0.000000 -0.000000 
43.008701 36.378101 -7.086100 -83.586502 4.329500 8.629000 3.459700 -4.723100 -0.197000 2.692400 -1.289400 -0.280100 5.010700 -2.039900 -1.103200 -1.163100 0.129900 -0.176000 -9.775600 -1.163100 -0.802100 -11.116700 5.504900 -0.216200 6.322900 -1.625700 1.992600 5.920200 -51.150200 8.519500 -0.000100 0.000100 106.544197 19.122801 -13.175400 -14.115300 0.000000 -0.000000 -0.000000 -0.000000 0.000000 -0.000000 1.367100 5.629900 -3.625800 20.573299 62.939098 -18.991501 -0.000100 -0.000100 -109.967400 8.742800 10.673300 9.222500 -0.000000 -0.000000 0.000000 0.000000 -0.000000 -0.000000 -14.806800 5.525200 -17.160700 18.498699 0.000000 0.000000 -7.701300 -7.196000 -5.218400 0.885900 0.000000 0.000000 -21.196400 -16.775900 3.595500 34.163399 0.000000 0.000000 -13.536700 13.222600 -1.746500 -4.121800 0.000000 -0.000000 
42.953098 36.394402 -7.093400 -83.457703 4.310500 8.698200 3.492100 -4.725800 -0.193500 2.682900 -1.296600 -0.274700 5.024400 -1.953700 -1.017500 -1.163000 0.130500 -0.161900 -9.832100 -1.200800 -0.891100 -10.995400 5.597600 -0.359800 6.384000 -1.626700 1.951900 5.799200 -51.043598 8.245400 -0.000100 0.000100 106.238899 19.164200 -12.839000 -14.103400 -0.000000 0.000000 0.000000 0.000000 -0.000000 -0.000000 1.317500 5.718900 -3.617300 20.253401 62.904999 -18.703699 -0.000100 -0.000100 -110.101601 9.636500 11.348800 9.162200 -0.000000 -0.000000 -0.000000 0.000000 0.000000 0.000000 -14.860600 5.455800 -17.202700 18.318001 0.000000 0.000000 -7.633000 -7.080600 -5.244600 0.891900 0.000000 0.000000 -21.577900 -16.232300 3.600200 33.993401 0.000000 0.000000 -13.835000 13.488200 -1.425700 -4.000100 0.000000 -0.000000 
42.899799 36.408901 -7.100600 -83.328598 4.304700 8.746900 3.524700 -4.712500 -0.181100 2.669400 -1.302600 -0.268200 5.038200 -1.877200 -0.934500 -1.164200 0.123600 -0.146700 -9.893900 -1.274500 -0.994900 -10.880300 5.717400 -0.493600 6.434000 -1.641900 1.903100 5.667700 -50.931000 7.986600 -0.000100 0.000100 105.931198 19.229700 -12.556700 -14.115100 -0.000000 0.000000 -0.000000 0.000000 0.000000 -0.000000 1.246400 5.804300 -3.579400 20.010500 62.895199 -18.467199 -0.000100 -0.000100 -110.126503 10.712800 11.950900 9.223500 0.000000 0.000000 0.000000 0.000000 0.000000 0.000000 -14.926800 5.375200 -17.232700 18.151800 0.000000 0.000000 -7.564300 -6.968500 -5.267900 0.888200 0.000000 0.000000 -21.896299 -15.731500 3.666600 33.669800 0.000000 0.000000 -14.110300 13.646400 -1.315300 -3.831000 0.000000 -0.000000 
